<?xml version="1.0" encoding="utf-8"?>
<!-- Generator: Adobe Illustrator 23.1.1, SVG Export Plug-In . SVG Version: 6.00 Build 0)  -->
<svg version="1.1" id="Layer_1" xmlns="http://www.w3.org/2000/svg" xmlns:xlink="http://www.w3.org/1999/xlink" x="0px" y="0px"
	 viewBox="0 0 29.5 29.5" style="enable-background:new 0 0 29.5 29.5;" xml:space="preserve">
<style type="text/css">
	.st0{fill:#FDC400;}
</style>
<g id="stati-scadenza">
	<g>
		<g>
			<path class="st0" d="M14.7,0C6.6,0,0,6.5,0,14.6s6.6,14.6,14.7,14.6s14.8-6.5,14.8-14.6C29.5,6.5,22.9,0,14.7,0z M14.7,27.1
				C7.7,27.1,2,21.5,2,14.6S7.7,2.1,14.7,2.1s12.7,5.6,12.7,12.5C27.5,21.5,21.8,27.1,14.7,27.1z"/>
		</g>
		<g>
			<path class="st0" d="M16,21.1c0,0.8-0.6,1.4-1.4,1.4c-0.8,0-1.4-0.6-1.4-1.4s0.6-1.4,1.4-1.4C15.3,19.7,16,20.3,16,21.1L16,21.1z
				"/>
			<path class="st0" d="M16,7.7c0-0.8-0.6-1.4-1.4-1.4s-1.4,0.6-1.4,1.4v9.2c0,0.8,0.6,1.4,1.4,1.4s1.4-0.6,1.4-1.4V7.7z"/>
		</g>
	</g>
</g>
</svg>
