<?xml version="1.0" encoding="utf-8"?>
<!-- Generator: Adobe Illustrator 23.1.1, SVG Export Plug-In . SVG Version: 6.00 Build 0)  -->
<svg version="1.1" id="Layer_1" xmlns="http://www.w3.org/2000/svg" xmlns:xlink="http://www.w3.org/1999/xlink" x="0px" y="0px"
	 viewBox="0 0 29.5 29.5" style="enable-background:new 0 0 29.5 29.5;" xml:space="preserve">
<style type="text/css">
	.st0{fill:#8DBE50;}
	.st1{fill:none;}
</style>
<title>Emessa</title>
<g id="Livello_2">
	<g id="Livello_1-2">
		<path class="st0" d="M14.7,0C6.6,0,0,6.6,0,14.8s6.6,14.7,14.8,14.7c8.1,0,14.7-6.6,14.7-14.8C29.5,6.6,22.9,0,14.7,0z M14.7,27.5
			C7.7,27.5,2,21.8,2,14.8S7.7,2.1,14.7,2.1s12.7,5.7,12.7,12.7c0,0,0,0,0,0C27.4,21.8,21.7,27.5,14.7,27.5z"/>
		<path class="st0" d="M20,13l-5.1,5.1l-1,1c-0.3,0.3-0.7,0.3-1,0l-1-1l-2.6-2.6c-0.3-0.3-0.3-0.7,0-1l1-1c0.3-0.3,0.7-0.3,1,0
			l2.1,2.1l4.7-4.7c0.3-0.3,0.7-0.3,1,0l1,1C20.3,12.3,20.3,12.8,20,13z"/>
		<rect x="-8.1" y="-8.1" class="st1" width="45.7" height="45.7"/>
	</g>
</g>
</svg>
