<svg id="Layer_2" data-name="Layer 2" xmlns="http://www.w3.org/2000/svg" viewBox="0 0 29.5 29.5"><defs><style>.cls-1{fill:#1a8daa;}</style></defs><title>cog</title><path class="cls-1" d="M14.73.15A14.59,14.59,0,1,0,29.35,14.73,14.61,14.61,0,0,0,14.73.15m0,27.18A12.56,12.56,0,1,1,27.29,14.77,12.58,12.58,0,0,1,14.73,27.33"/><path class="cls-1" d="M17.71,14.57a3.13,3.13,0,1,1-3.13-3.13,3.13,3.13,0,0,1,3.13,3.13m-1.37,0a1.76,1.76,0,1,0-1.76,1.75,1.76,1.76,0,0,0,1.76-1.75M23,14.08v1a1.58,1.58,0,0,1-1.3,1.56l-.75.13c-.1.27-.21.54-.33.8l.43.62a1.59,1.59,0,0,1-.17,2l-.7.7a1.59,1.59,0,0,1-2,.17l-.61-.44a6.13,6.13,0,0,1-.8.33l-.13.75A1.58,1.58,0,0,1,15.08,23h-1a1.57,1.57,0,0,1-1.55-1.31L12.41,21a5.6,5.6,0,0,1-.8-.33l-.63.44a1.59,1.59,0,0,1-2-.17l-.7-.71a1.58,1.58,0,0,1-.17-2l.44-.62a6.07,6.07,0,0,1-.32-.8l-.75-.13a1.59,1.59,0,0,1-1.31-1.56v-1a1.58,1.58,0,0,1,1.3-1.56l.76-.13a5.6,5.6,0,0,1,.33-.8L8.08,11a1.58,1.58,0,0,1,.18-2L9,8.24a1.58,1.58,0,0,1,2-.17l.62.43a7.85,7.85,0,0,1,.8-.32l.14-.76a1.59,1.59,0,0,1,1.55-1.3h1a1.59,1.59,0,0,1,1.55,1.31l.13.75a7.18,7.18,0,0,1,.81.32l.62-.43a1.56,1.56,0,0,1,2,.17l.7.7a1.58,1.58,0,0,1,.18,2l-.44.63a5.6,5.6,0,0,1,.33.8l.75.13A1.56,1.56,0,0,1,23,14.08m-1.37,0a.21.21,0,0,0-.17-.21l-1.17-.2a.69.69,0,0,1-.54-.5,5.57,5.57,0,0,0-.53-1.29.69.69,0,0,1,0-.73l.69-1a.21.21,0,0,0,0-.26l-.69-.7a.21.21,0,0,0-.27,0l-1,.68a.65.65,0,0,1-.73,0A5.57,5.57,0,0,0,16,9.38a.71.71,0,0,1-.5-.54l-.21-1.18a.22.22,0,0,0-.21-.18h-1a.22.22,0,0,0-.21.18l-.2,1.16a.69.69,0,0,1-.5.55,5,5,0,0,0-1.28.53.69.69,0,0,1-.73,0l-1-.69a.2.2,0,0,0-.27,0l-.7.69a.21.21,0,0,0,0,.27l.69,1a.69.69,0,0,1,0,.73,5.16,5.16,0,0,0-.53,1.29.71.71,0,0,1-.56.51l-1.17.2a.21.21,0,0,0-.17.21v1a.21.21,0,0,0,.17.21l1.17.2a.69.69,0,0,1,.54.5,5.32,5.32,0,0,0,.53,1.28.68.68,0,0,1,0,.74L9.2,19a.2.2,0,0,0,0,.26l.69.7a.21.21,0,0,0,.27,0l1-.68a.67.67,0,0,1,.74,0,5.32,5.32,0,0,0,1.28.53.69.69,0,0,1,.51.55l.2,1.16a.22.22,0,0,0,.21.18h1a.2.2,0,0,0,.2-.18l.21-1.16a.68.68,0,0,1,.49-.54,5.57,5.57,0,0,0,1.29-.53.65.65,0,0,1,.73,0L19,20a.21.21,0,0,0,.27,0l.7-.7A.2.2,0,0,0,20,19l-.69-1a.71.71,0,0,1,0-.74A5.32,5.32,0,0,0,19.77,16a.69.69,0,0,1,.55-.5l1.17-.22a.2.2,0,0,0,.17-.2Z"/></svg>