<?xml version="1.0" encoding="utf-8"?>
<!-- Generator: Adobe Illustrator 23.1.1, SVG Export Plug-In . SVG Version: 6.00 Build 0)  -->
<svg version="1.1" id="Layer_1" xmlns="http://www.w3.org/2000/svg" xmlns:xlink="http://www.w3.org/1999/xlink" x="0px" y="0px"
	 viewBox="0 0 29.5 29.5" style="enable-background:new 0 0 29.5 29.5;" xml:space="preserve">
<style type="text/css">
	.st0{fill:#1F8CAC;}
	.st1{fill:none;}
</style>
<title>in_elaborazione</title>
<g id="Livello_2">
	<g id="Livello_1-2">
		<path class="st0" d="M14.7,0C6.6,0,0,6.6,0,14.8s6.6,14.7,14.8,14.7c8.1,0,14.7-6.6,14.7-14.8C29.5,6.6,22.9,0,14.7,0z M14.7,27.5
			C7.7,27.5,2,21.8,2,14.8S7.7,2.1,14.7,2.1s12.7,5.7,12.7,12.7c0,0,0,0,0,0C27.4,21.8,21.7,27.5,14.7,27.5z"/>
		<path class="st0" d="M22.2,7.6c0-0.6-0.5-1-1-1H8.3c-0.6,0-1,0.4-1,1c0,0.6,0.4,1,1,1c0,0,0,0,0,0h1.2l0,0c0,1.9,0.7,4.7,2.6,6
			c-1.8,1.4-2.6,4.4-2.6,6.3l0,0H8.3c-0.6,0-1,0.4-1,1s0.4,1,1,1c0,0,0,0,0,0h12.8c0.6,0,1-0.5,1-1c0-0.5-0.4-1-1-1H20l0,0
			c0-1.9-0.7-4.9-2.6-6.3c1.8-1.5,2.7-3.7,2.6-6l0,0h1.2C21.7,8.6,22.2,8.1,22.2,7.6z M18.5,8.6c0,2.1-1,4.7-2.6,5.2
			c-0.3,0.1-0.5,0.4-0.5,0.7l0,0.3c0,0.3,0.2,0.6,0.5,0.7c1.3,0.4,2.6,2.6,2.6,5.5l0,0H11l0,0c0-2.2,1-4.9,2.6-5.5
			c0.3-0.1,0.5-0.4,0.5-0.7l0-0.3c0-0.3-0.2-0.6-0.5-0.7c-1.6-0.5-2.6-3.1-2.6-5.2l0,0L18.5,8.6L18.5,8.6z"/>
		<rect x="-8.1" y="-8.1" class="st1" width="45.7" height="45.7"/>
	</g>
</g>
</svg>
