<?xml version="1.0" encoding="utf-8"?>
<!-- Generator: Adobe Illustrator 23.1.1, SVG Export Plug-In . SVG Version: 6.00 Build 0)  -->
<svg version="1.1" id="Layer_1" xmlns="http://www.w3.org/2000/svg" xmlns:xlink="http://www.w3.org/1999/xlink" x="0px" y="0px"
	 viewBox="0 0 29.5 29.5" style="enable-background:new 0 0 29.5 29.5;" xml:space="preserve">
<style type="text/css">
	.st0{fill:#FDC400;}
</style>
<title>Emessa</title>
<g id="stati-documento">
	<g>
		<g>
			<path class="st0" d="M14.7,0C6.6,0,0,6.6,0,14.7s6.6,14.7,14.7,14.7s14.7-6.6,14.7-14.7C29.5,6.6,22.9,0,14.7,0z M14.7,27.4
				C7.7,27.4,2,21.7,2,14.7S7.7,2.1,14.7,2.1s12.7,5.7,12.7,12.7C27.4,21.7,21.7,27.4,14.7,27.4z"/>
		</g>
		<g>
			<path class="st0" d="M10.2,22.6H2.7c-0.4,0-0.7-0.3-0.7-0.7c0-0.4,0.3-0.7,0.7-0.7h7.5c0.4,0,0.7,0.3,0.7,0.7
				C10.9,22.3,10.6,22.6,10.2,22.6z"/>
		</g>
		<path class="st0" d="M12.1,19.6l-0.4,0.5l0.9,0.8l0,0l1.6,1.4l0.4-0.5c0.4-0.4,0.9-0.9,1.5-1.1c1.2-0.7,2.6-0.9,3.6-0.4l0.6,0.2
			l0.2-0.6c0.5-1.3,1.3-2.7,2.2-4l0.3-0.4c0.4-0.6,0.4-0.6,1.1-1.3l-0.9-0.9c-0.6,0.7-0.7,0.8-1.2,1.4L21.7,15
			c-0.9,1.2-1.6,2.5-2.1,3.7c-1.3-0.3-2.7,0-4.1,0.7c-0.2,0.1-0.3,0.2-0.5,0.3l2.9-3.4c0.1,0,0.2,0,0.3,0c0,0,0.1,0,0.1,0
			c0.4,0,0.7-0.2,0.9-0.5l0,0c0.5-0.6,0.4-1.4-0.2-1.9c-0.3-0.2-0.6-0.4-1-0.3c-0.4,0-0.7,0.2-0.9,0.5c-0.2,0.3-0.4,0.6-0.3,1
			c0,0.1,0,0.2,0.1,0.4L14,18.9c0.1-0.2,0.2-0.3,0.2-0.5c0.5-1.5,0.5-3,0.1-4.1c1.1-0.7,2.3-1.7,3.4-2.7l0.4-0.3
			c0.6-0.6,0.6-0.6,1.2-1.4l-1-0.8c-0.5,0.7-0.6,0.7-1.1,1.2l-0.4,0.3c-1.2,1.1-2.4,2.1-3.6,2.8l-0.5,0.3l0.3,0.6
			c0.5,0.9,0.6,2.3,0.1,3.6C12.8,18.6,12.4,19.1,12.1,19.6z M18.1,15L18.1,15L18.1,15C18.2,15,18.2,15.1,18.1,15
			C18.1,15.1,18.1,15.1,18.1,15L18.1,15C18,15,18,15,18.1,15z"/>
		<path class="st0" d="M27.7,7.7l-3,3.6l-4-3.4l3.6-4.4c-0.3-0.3-0.7-0.6-1-0.8l-4.4,5.3l6,5.1L28.3,9C28.1,8.6,27.9,8.2,27.7,7.7z"
			/>
	</g>
</g>
</svg>
