<?xml version="1.0" encoding="utf-8"?>
<!-- Generator: Adobe Illustrator 23.1.1, SVG Export Plug-In . SVG Version: 6.00 Build 0)  -->
<svg version="1.1" id="Layer_1" xmlns="http://www.w3.org/2000/svg" xmlns:xlink="http://www.w3.org/1999/xlink" x="0px" y="0px"
	 viewBox="0 0 29.5 29.5" style="enable-background:new 0 0 29.5 29.5;" xml:space="preserve">
<style type="text/css">
	.st0{fill:#FCC22A;}
	.st1{fill:none;}
</style>
<title>dati_da_Completare</title>
<g id="Livello_2">
	<g id="Livello_1-2">
		<circle class="st0" cx="8.1" cy="14.6" r="1.9"/>
		<circle class="st0" cx="14.8" cy="14.6" r="1.9"/>
		<circle class="st0" cx="21.6" cy="14.6" r="1.9"/>
		<path class="st0" d="M14.7,0C6.5,0,0,6.7,0,14.8C0,23,6.7,29.6,14.8,29.5c8.1,0,14.7-6.7,14.7-14.8C29.5,6.6,22.8,0,14.7,0z
			 M14.8,27.5C7.7,27.5,2,21.8,2,14.8c0-7,5.6-12.7,12.7-12.7s12.7,5.6,12.7,12.7c0,0,0,0,0,0C27.4,21.8,21.8,27.5,14.8,27.5z"/>
		<rect x="-8.1" y="-8.1" class="st1" width="45.7" height="45.7"/>
	</g>
</g>
</svg>
