<?xml version="1.0" encoding="utf-8"?>
<!-- Generator: Adobe Illustrator 23.1.1, SVG Export Plug-In . SVG Version: 6.00 Build 0)  -->
<svg version="1.1" id="Layer_1" xmlns="http://www.w3.org/2000/svg" xmlns:xlink="http://www.w3.org/1999/xlink" x="0px" y="0px"
	 viewBox="0 0 29.5 29.5" style="enable-background:new 0 0 29.5 29.5;" xml:space="preserve">
<style type="text/css">
	.st0{fill:#E44222;}
	.st1{fill:none;}
</style>
<title>Rifiutato</title>
<g id="Livello_2">
	<g id="Livello_1-2">
		<path class="st0" d="M14.7,0C6.6,0,0,6.6,0,14.8s6.6,14.7,14.8,14.7c8.1,0,14.7-6.6,14.7-14.8C29.5,6.6,22.9,0,14.7,0z M14.7,27.5
			C7.7,27.5,2,21.8,2,14.8S7.7,2.1,14.7,2.1s12.7,5.7,12.7,12.7c0,0,0,0,0,0C27.4,21.8,21.7,27.5,14.7,27.5z"/>
		<path class="st0" d="M19.1,18.2l-1.1,1.1c-0.3,0.3-0.8,0.3-1.1,0L14.7,17l-2.3,2.3c-0.3,0.3-0.8,0.3-1.1,0l-1.1-1.1
			c-0.3-0.3-0.3-0.8,0-1.1l2.3-2.3l-2.3-2.3c-0.3-0.3-0.3-0.8,0-1.1l1.1-1.1c0.3-0.3,0.8-0.3,1.1,0l2.3,2.3l2.3-2.3
			c0.3-0.3,0.8-0.3,1.1,0l1.1,1.1c0.3,0.3,0.3,0.8,0,1.1l-2.3,2.3l2.3,2.3C19.4,17.4,19.4,17.9,19.1,18.2L19.1,18.2z"/>
		<rect x="-8.1" y="-8.1" class="st1" width="45.7" height="45.7"/>
	</g>
</g>
</svg>
